# xmcd CD database file
# Copyright (C) 1997 Ti Kan
#
# Track frame offsets:
#  150
#  19742
#  38860
#  68005
#  81430
#  95327
#  115260
#  140335
#  164127
#  183575
#
# Disc length: 2816 seconds
#
# Revision: 1
# Processed by: cddbd v1.4b41PL1 Copyright (c) Steve Scherf et al.
# Submitted via: CDWizzard Release:4.32
#
DISCID=870afe0a
DTITLE=Charles - C-Funk
DYEAR=1900
DGENRE=
TTITLE0=Mother.Father.Sister.Brother.
TTITLE1=Fruit
TTITLE2=Living without love
TTITLE3=Try it again, jam  part1
TTITLE4=Try it again, jam  part2
TTITLE5=Toast the funk
TTITLE6=Aphrodisiac
TTITLE7=The key
TTITLE8=Time.Time.Time.
TTITLE9=Jump, young man,  jump
EXTD=
EXTT0=
EXTT1=
EXTT2=
EXTT3=
EXTT4=
EXTT5=
EXTT6=
EXTT7=
EXTT8=
EXTT9=
PLAYORDER=
